<svg width="120" height="35" viewBox="0 0 120 35" fill="none" xmlns="http://www.w3.org/2000/svg">
<path fill-rule="evenodd" clip-rule="evenodd" d="M19.4491 9.66553C17.8277 9.66553 16.5133 10.9782 16.5133 12.5975C16.5133 14.2167 17.8277 15.5294 19.4491 15.5294C21.0705 15.5294 22.3848 14.2167 22.3848 12.5975C22.3848 10.9782 21.0705 9.66553 19.4491 9.66553ZM13.7089 15.3694C16.7649 15.3694 19.2423 17.8435 19.2423 20.8956V25.4247H16.49V20.8956C16.49 20.5705 16.4341 20.2586 16.3314 19.9687L12.2886 24.0062L10.3425 22.0625L14.2411 18.1689C14.0689 18.1356 13.8909 18.1181 13.7089 18.1181H9.17383V15.3694H13.7089ZM25.2577 15.3694C22.2017 15.3694 19.7243 17.8435 19.7243 20.8956V25.4247H22.4766V20.8956C22.4766 20.6408 22.5109 20.3944 22.5751 20.16L26.8041 24.3835L28.7503 22.44L24.5214 18.2165C24.7558 18.1523 25.0028 18.1181 25.2577 18.1181H29.7927V15.3694H25.2577Z" fill="#B0B0B0"/>
<path d="M34.1973 25.5831V9.78394H38.6776L43.4813 23.3228H43.8277V9.78394H46.3912V25.5831H42.0033L37.0841 12.0212H36.7608V25.5831H34.1973Z" fill="#B0B0B0"/>
<path d="M56.6607 23.5073L57.3073 23.438L57.3536 25.3062C55.5983 25.6599 54.0433 25.8367 52.6884 25.8367C50.9794 25.8367 49.7477 25.3678 48.9934 24.4298C48.2543 23.4919 47.8848 21.9926 47.8848 19.9322C47.8848 15.8422 49.5552 13.7971 52.8963 13.7971C56.1295 13.7971 57.7462 15.5577 57.7462 19.0788L57.5846 20.8779H50.4251C50.4405 21.8312 50.6484 22.5308 51.0488 22.9768C51.449 23.4227 52.1958 23.6457 53.289 23.6457C54.382 23.6457 55.5061 23.5995 56.6607 23.5073ZM55.275 18.9405C55.275 17.8026 55.0903 17.0108 54.7207 16.5649C54.3668 16.1036 53.7585 15.8729 52.8963 15.8729C52.0341 15.8729 51.4029 16.1113 51.0026 16.5879C50.6176 17.0646 50.4174 17.8488 50.4022 18.9405H55.275Z" fill="#B0B0B0"/>
<path d="M65.2239 16.1959H62.0367V21.2701C62.0367 22.208 62.1061 22.8308 62.2446 23.1383C62.3832 23.4458 62.7373 23.5995 63.307 23.5995L65.2008 23.5305L65.3162 25.537C64.2846 25.7369 63.4995 25.8368 62.9606 25.8368C61.652 25.8368 60.7512 25.537 60.2586 24.9372C59.7812 24.3377 59.5426 23.2074 59.5426 21.5468V16.1959H58.0645V14.0509H59.5426V10.7065H62.0367V14.0509H65.2239V16.1959Z" fill="#B0B0B0"/>
<path d="M65.2344 14.0508H67.7056L69.53 23.438H69.9918L72.1859 14.2814H74.7725L76.9665 23.438H77.4283L79.2298 14.0508H81.7239L79.2758 25.5831H75.2806L73.4791 17.6719L71.6779 25.5831H67.6825L65.2344 14.0508Z" fill="#B0B0B0"/>
<path d="M83.3301 15.2963C84.1307 14.2969 85.4547 13.7971 87.3024 13.7971C89.15 13.7971 90.4663 14.2969 91.2516 15.2963C92.0522 16.2958 92.4525 17.795 92.4525 19.7938C92.4525 21.7929 92.0676 23.2997 91.2977 24.3145C90.5279 25.3293 89.1962 25.8367 87.3024 25.8367C85.4087 25.8367 84.0767 25.3293 83.307 24.3145C82.5371 23.2997 82.1523 21.7929 82.1523 19.7938C82.1523 17.795 82.5448 16.2958 83.3301 15.2963ZM85.2239 22.7923C85.578 23.4073 86.2709 23.7147 87.3024 23.7147C88.334 23.7147 89.0268 23.4073 89.381 22.7923C89.7351 22.1771 89.9122 21.17 89.9122 19.7707C89.9122 18.3717 89.7197 17.3798 89.3347 16.7955C88.9652 16.2112 88.2878 15.9191 87.3024 15.9191C86.3169 15.9191 85.6318 16.2112 85.247 16.7955C84.8775 17.3798 84.6927 18.3717 84.6927 19.7707C84.6927 21.17 84.8698 22.1771 85.2239 22.7923Z" fill="#B0B0B0"/>
<path d="M93.7988 25.5831V14.0508H96.2931V15.4347C97.6018 14.589 98.9106 14.0431 100.219 13.7971V16.3111C98.8952 16.5725 97.7634 16.9108 96.8243 17.326L96.3163 17.5336V25.5831H93.7988Z" fill="#B0B0B0"/>
<path d="M103.506 25.5831H100.988V9.25342H103.506V18.6868L104.937 18.5485L107.663 14.0508H110.48L107.155 19.4478L110.665 25.5831H107.824L105.007 20.7164L103.506 20.8779V25.5831Z" fill="#B0B0B0"/>
</svg>
