<svg width="120" height="22" viewBox="0 0 120 22" fill="none" xmlns="http://www.w3.org/2000/svg">
<g clip-path="url(#clip0_14241_16420)">
<path d="M112.878 20.7684C111.549 20.7684 110.388 20.4843 109.394 19.9163C108.409 19.3401 107.64 18.5407 107.089 17.5182C106.537 16.4876 106.262 15.2865 106.262 13.9151C106.262 12.4787 106.533 11.2371 107.076 10.1902C107.619 9.13521 108.375 8.3237 109.344 7.75564C110.322 7.17946 111.466 6.89136 112.777 6.89136C114.139 6.89136 115.296 7.19569 116.248 7.80433C117.209 8.41295 117.927 9.28129 118.404 10.4093C118.888 11.5373 119.097 12.8804 119.03 14.4385H116.775V13.6594C116.75 12.0445 116.411 10.8394 115.76 10.0441C115.108 9.24071 114.139 8.83902 112.853 8.83902C111.474 8.83902 110.426 9.26912 109.707 10.1293C108.989 10.9895 108.63 12.2231 108.63 13.8299C108.63 15.3799 108.989 16.5809 109.707 17.433C110.426 18.2851 111.449 18.7112 112.777 18.7112C113.671 18.7112 114.448 18.5123 115.108 18.1147C115.768 17.717 116.286 17.1449 116.662 16.3983L118.804 17.1165C118.278 18.277 117.485 19.1778 116.424 19.8189C115.371 20.4519 114.189 20.7684 112.878 20.7684ZM107.878 14.4385V12.6978H117.877V14.4385H107.878Z" fill="#B0B0B0"/>
<path d="M99.4121 20.4033V7.25665H101.404V10.4337L101.079 10.0199C101.237 9.61412 101.442 9.2408 101.693 8.89997C101.952 8.55912 102.24 8.27916 102.557 8.06004C102.908 7.78413 103.305 7.57313 103.748 7.42705C104.19 7.28099 104.641 7.19578 105.101 7.17143C105.56 7.13897 105.99 7.16737 106.392 7.25665V9.28949C105.924 9.16776 105.41 9.1353 104.85 9.19211C104.291 9.24892 103.773 9.44775 103.296 9.78858C102.862 10.0889 102.524 10.454 102.282 10.8841C102.048 11.3143 101.885 11.7809 101.793 12.284C101.701 12.779 101.655 13.2862 101.655 13.8056V20.4033H99.4121Z" fill="#B0B0B0"/>
<path d="M90.667 20.7684C89.6562 20.7684 88.8084 20.5898 88.1233 20.2328C87.4466 19.8676 86.933 19.3888 86.5822 18.7964C86.2396 18.204 86.0684 17.5547 86.0684 16.8487C86.0684 16.1589 86.2021 15.5625 86.4694 15.0593C86.745 14.5481 87.1292 14.1261 87.6221 13.7933C88.1151 13.4525 88.7039 13.1847 89.389 12.9899C90.0321 12.8195 90.7506 12.6734 91.544 12.5517C92.3462 12.4219 93.1563 12.3042 93.9749 12.1987C94.7938 12.0932 95.5581 11.9918 96.2681 11.8944L95.4662 12.3448C95.4913 11.1762 95.2489 10.3119 94.7395 9.75197C94.2381 9.19202 93.3694 8.91206 92.1331 8.91206C91.3145 8.91206 90.596 9.09463 89.9778 9.45983C89.3681 9.81689 88.9379 10.4012 88.6872 11.2127L86.5695 10.5919C86.8954 9.43954 87.526 8.53468 88.4616 7.87735C89.3972 7.22004 90.6294 6.89136 92.1582 6.89136C93.3861 6.89136 94.4387 7.10642 95.3158 7.53652C96.2014 7.9585 96.8362 8.59961 97.2204 9.45983C97.4126 9.86559 97.5336 10.3079 97.5839 10.7867C97.6339 11.2573 97.6591 11.7524 97.6591 12.2718V20.4032H95.6791V17.2504L96.1429 17.5426C95.6333 18.6057 94.919 19.4091 94.0001 19.9528C93.0896 20.4965 91.9785 20.7684 90.667 20.7684ZM91.0053 18.9546C91.8072 18.9546 92.5006 18.8167 93.0854 18.5407C93.6784 18.2567 94.1547 17.8875 94.5139 17.433C94.8732 16.9704 95.1069 16.4673 95.2155 15.9236C95.341 15.5178 95.4077 15.0674 95.4159 14.5724C95.4328 14.0693 95.4411 13.6838 95.4411 13.416L96.2181 13.7447C95.4911 13.842 94.7771 13.9354 94.0753 14.0246C93.3737 14.1139 92.7094 14.2113 92.083 14.3168C91.4564 14.4142 90.8925 14.5318 90.3914 14.6698C90.0239 14.7834 89.6771 14.9295 89.3514 15.108C89.034 15.2865 88.7748 15.5178 88.5744 15.8018C88.3822 16.0778 88.2861 16.4227 88.2861 16.8366C88.2861 17.1936 88.3782 17.5344 88.562 17.8591C88.7542 18.1837 89.0465 18.4474 89.4391 18.6503C89.8399 18.8532 90.3622 18.9546 91.0053 18.9546Z" fill="#B0B0B0"/>
<path d="M72.4339 20.4032L68.2988 7.24438L70.5168 7.25656L73.5365 16.8731L76.5816 7.25656H78.5486L81.581 16.8731L84.6133 7.25656H86.8187L82.6836 20.4032H80.8294L77.5587 10.4093L74.2884 20.4032H72.4339Z" fill="#B0B0B0"/>
<path d="M61.2961 20.7684C60.2853 20.7684 59.4374 20.5898 58.7525 20.2328C58.0758 19.8676 57.5619 19.3888 57.2111 18.7964C56.8686 18.204 56.6973 17.5547 56.6973 16.8487C56.6973 16.1589 56.831 15.5625 57.0983 15.0593C57.3739 14.5481 57.7583 14.1261 58.251 13.7933C58.744 13.4525 59.333 13.1847 60.0179 12.9899C60.6612 12.8195 61.3795 12.6734 62.1732 12.5517C62.9751 12.4219 63.7855 12.3042 64.6041 12.1987C65.4227 12.0932 66.187 11.9918 66.897 11.8944L66.0951 12.3448C66.1202 11.1762 65.878 10.3119 65.3684 9.75197C64.8672 9.19202 63.9983 8.91206 62.762 8.91206C61.9434 8.91206 61.2249 9.09463 60.6067 9.45983C59.997 9.81689 59.5668 10.4012 59.3161 11.2127L57.1987 10.5919C57.5243 9.43954 58.1549 8.53468 59.0905 7.87735C60.0261 7.22004 61.2585 6.89136 62.7871 6.89136C64.015 6.89136 65.0676 7.10642 65.9447 7.53652C66.8303 7.9585 67.4652 8.59961 67.8493 9.45983C68.0415 9.86559 68.1627 10.3079 68.2128 10.7867C68.2628 11.2573 68.288 11.7524 68.288 12.2718V20.4032H66.3082V17.2504L66.7718 17.5426C66.2622 18.6057 65.5479 19.4091 64.629 19.9528C63.7185 20.4965 62.6076 20.7684 61.2961 20.7684ZM61.6344 18.9546C62.4364 18.9546 63.1297 18.8167 63.7143 18.5407C64.3076 18.2567 64.7836 17.8875 65.1428 17.433C65.5021 16.9704 65.7359 16.4673 65.8447 15.9236C65.9699 15.5178 66.0366 15.0674 66.0451 14.5724C66.0617 14.0693 66.07 13.6838 66.07 13.416L66.847 13.7447C66.1203 13.842 65.406 13.9354 64.7042 14.0246C64.0026 14.1139 63.3383 14.2113 62.712 14.3168C62.0853 14.4142 61.5217 14.5318 61.0203 14.6698C60.6528 14.7834 60.3062 14.9295 59.9803 15.108C59.6629 15.2865 59.404 15.5178 59.2033 15.8018C59.0114 16.0778 58.9153 16.4227 58.9153 16.8366C58.9153 17.1936 59.0071 17.5344 59.1909 17.8591C59.3831 18.1837 59.6754 18.4474 60.068 18.6503C60.4691 18.8532 60.9911 18.9546 61.6344 18.9546Z" fill="#B0B0B0"/>
<path d="M52.9629 20.4033V2.50928H55.1933V20.4033H52.9629Z" fill="#B0B0B0"/>
<path d="M45.2724 20.7684C43.9442 20.7684 42.7831 20.4843 41.7889 19.9163C40.8033 19.3401 40.0348 18.5407 39.4833 17.5182C38.9321 16.4876 38.6562 15.2865 38.6562 13.9151C38.6562 12.4787 38.9279 11.2371 39.4709 10.1902C40.0138 9.13521 40.7697 8.3237 41.7389 7.75564C42.7161 7.17946 43.8606 6.89136 45.1721 6.89136C46.5337 6.89136 47.6909 7.19569 48.6431 7.80433C49.6036 8.41295 50.3221 9.28129 50.7982 10.4093C51.2829 11.5373 51.4915 12.8804 51.4248 14.4385H49.1692V13.6594C49.1443 12.0445 48.806 10.8394 48.1544 10.0441C47.5029 9.24071 46.5337 8.83902 45.2473 8.83902C43.869 8.83902 42.8206 9.26912 42.1021 10.1293C41.3839 10.9895 41.0246 12.2231 41.0246 13.8299C41.0246 15.3799 41.3839 16.5809 42.1021 17.433C42.8206 18.2851 43.8439 18.7112 45.1721 18.7112C46.0659 18.7112 46.8429 18.5123 47.5029 18.1147C48.1626 17.717 48.6807 17.1449 49.0567 16.3983L51.1992 17.1165C50.6729 18.277 49.8795 19.1778 48.8184 19.8189C47.7658 20.4519 46.584 20.7684 45.2724 20.7684ZM40.2728 14.4385V12.6978H50.2721V14.4385H40.2728Z" fill="#B0B0B0"/>
<path d="M31.1741 20.7683C29.9129 20.7683 28.8311 20.464 27.9289 19.8554C27.0266 19.2386 26.329 18.4068 25.8363 17.3599C25.3519 16.3131 25.1094 15.1323 25.1094 13.8176C25.1094 12.503 25.3519 11.3222 25.8363 10.2753C26.329 9.22848 27.0266 8.4048 27.9289 7.80427C28.8311 7.19563 29.9086 6.8913 31.1617 6.8913C32.4398 6.8913 33.5131 7.19157 34.382 7.7921C35.2509 8.39263 35.9064 9.21631 36.3493 10.2632C36.8004 11.31 37.026 12.4948 37.026 13.8176C37.026 15.1242 36.8004 16.305 36.3493 17.3599C35.9064 18.4068 35.2509 19.2386 34.382 19.8554C33.5131 20.464 32.4441 20.7683 31.1741 20.7683ZM31.45 18.7841C32.3604 18.7841 33.108 18.5732 33.6929 18.1512C34.2777 17.721 34.7079 17.1327 34.9835 16.3861C35.2676 15.6314 35.4095 14.7752 35.4095 13.8176C35.4095 12.8438 35.2676 11.9876 34.9835 11.2492C34.7079 10.5026 34.2817 9.92233 33.7053 9.50847C33.129 9.08646 32.398 8.87548 31.5124 8.87548C30.5935 8.87548 29.8334 9.09457 29.2319 9.53281C28.6389 9.97103 28.1963 10.5634 27.9037 11.31C27.6197 12.0566 27.4778 12.8925 27.4778 13.8176C27.4778 14.7509 27.6239 15.5949 27.9162 16.3496C28.2087 17.0962 28.6471 17.6886 29.2319 18.1268C29.825 18.565 30.5644 18.7841 31.45 18.7841ZM35.4095 20.4031V10.7257H35.1588V2.87427H37.4019V20.4031H35.4095Z" fill="#B0B0B0"/>
<path d="M117.441 4.25814V4.18793L118.895 1.80976H117.569V1.2854H119.907V1.35559L118.461 3.72965H119.864V4.25814H117.441Z" fill="#B0B0B0"/>
<path d="M114.412 4.25814L115.347 1.2854H116.21L117.145 4.25814H116.55L115.717 1.63635H115.827L115.007 4.25814H114.412ZM114.973 3.63881V3.11446H116.588V3.63881H114.973Z" fill="#B0B0B0"/>
<path fill-rule="evenodd" clip-rule="evenodd" d="M11.3231 0H0V22H11.3231C17.5767 22 22.6463 17.0751 22.6463 11C22.6463 4.92487 17.5767 0 11.3231 0ZM12.3849 18.8656C12.1247 18.7912 11.8578 18.4902 11.8011 18.2022C11.7644 18.0145 11.8078 17.8851 12.0846 17.3641C13.2055 15.2607 13.6926 13.3256 13.6926 10.9795C13.6926 8.71112 13.2622 6.94428 12.1914 4.82795C11.9612 4.3749 11.7744 3.951 11.7744 3.8895C11.7744 3.663 11.9679 3.33615 12.1781 3.20995C12.4649 3.03522 12.9486 3.06758 13.1822 3.2779C13.2722 3.35881 13.5024 3.7277 13.6959 4.09662C14.4632 5.55603 14.9869 7.15785 15.2471 8.82437C15.4073 9.85664 15.4406 11.8112 15.3105 12.7561C15.0737 14.497 14.6 16.0535 13.8394 17.5744C13.379 18.4934 13.0921 18.8721 12.8519 18.8721C12.8052 18.8721 12.7252 18.885 12.6784 18.898C12.6317 18.9109 12.4983 18.898 12.3849 18.8656ZM9.26577 17.2832C8.86544 17.1699 8.57522 16.691 8.69198 16.3351C8.71865 16.2477 8.90881 15.8497 9.11231 15.4484C9.96964 13.7495 10.3266 11.9309 10.1531 10.1446C10.0097 8.6755 9.73947 7.75004 9.05559 6.39738C8.59857 5.48807 8.57522 5.34893 8.84208 4.98004C9.09563 4.63056 9.72946 4.57554 10.0597 4.87002C10.2899 5.07388 11.0071 6.52684 11.284 7.34876C12.1981 10.067 12.058 12.9891 10.887 15.6587C10.2832 17.0276 9.85957 17.4515 9.26577 17.2832ZM5.52949 15.0601C5.58954 15.3157 5.80302 15.5714 6.04989 15.6782C6.15998 15.7267 6.34678 15.7526 6.46354 15.7429C6.8472 15.6943 7.03733 15.4937 7.42098 14.7397C8.08815 13.4227 8.32835 12.4422 8.33169 11.0151C8.33502 9.62688 8.07817 8.54284 7.451 7.29376C7.044 6.48152 6.80716 6.25824 6.35012 6.25824C6.07992 6.25824 5.99651 6.28736 5.80302 6.46534C5.41272 6.82455 5.42273 7.00575 5.88642 7.91506C6.94058 9.98932 6.93057 12.0312 5.84973 14.154C5.55617 14.73 5.49279 14.9048 5.52949 15.0601ZM3.04753 14.1831C2.8507 14.1055 2.6272 13.8466 2.56048 13.6201C2.48709 13.3677 2.54714 13.167 2.84069 12.6978C3.221 12.0927 3.30774 11.7691 3.30774 10.9795C3.30774 10.19 3.221 9.86311 2.84069 9.26122C2.71061 9.05735 2.58383 8.81142 2.55381 8.71435C2.43038 8.31632 2.77399 7.8277 3.23435 7.74356C3.62465 7.67235 3.89154 7.84063 4.25181 8.38427C5.28929 9.95696 5.28929 12.0539 4.25181 13.6136C3.88486 14.1605 3.47786 14.3547 3.04753 14.1831Z" fill="#B0B0B0"/>
</g>
<defs>
<clipPath id="clip0_14241_16420">
<rect width="120" height="22" fill="white"/>
</clipPath>
</defs>
</svg>
