<svg width="120" height="40" viewBox="0 0 120 40" fill="none" xmlns="http://www.w3.org/2000/svg">
<path d="M50.0462 26.6122C49.7662 26.3694 49.6055 26.1149 49.5907 25.8475L50.0462 26.6122ZM50.0462 26.6122L50.0476 26.6134C50.3521 26.8656 50.7811 26.9858 51.3232 26.9858H52.5095H52.5888V26.9056V26.7482V26.668H52.5095H51.9138L51.7069 26.6299L51.7032 26.6292L51.6992 26.6289C51.5759 26.6184 51.4387 26.5339 51.2895 26.3461C51.1606 26.1546 51.0912 25.8787 51.0912 25.5082V19.348C51.0912 18.6911 50.9253 18.1472 50.5874 17.7231L50.5865 17.7218C50.3653 17.456 50.0185 17.2596 49.5568 17.1259C49.1053 16.9783 48.5194 16.9059 47.8027 16.9059C47.0695 16.9059 46.3973 17.1627 45.7881 17.6719C45.3011 18.0685 44.9347 18.4934 44.6924 18.9473V17.0649V16.9847H44.6128H43.2514H43.1721V17.0649V26.9056V26.9858H43.2514H44.6128H44.6924V26.9056V19.9187C44.6924 19.4272 45.0034 18.8566 45.6604 18.2047L45.6611 18.2042C46.3095 17.548 47.0354 17.2239 47.8415 17.2239C48.2347 17.2239 48.5587 17.288 48.8171 17.4121C49.3074 17.6794 49.5712 18.301 49.5712 19.3283V25.5082V25.5106V25.513L49.5907 25.8475L50.0462 26.6122ZM41.946 14.0302L42.0192 14.0586L42.0481 13.9851L42.126 13.7883L42.1573 13.7092L42.0775 13.6823C40.7474 13.2337 39.4359 13.009 38.1429 13.009C36.8613 13.009 35.8855 13.3132 35.2298 13.9358C34.5766 14.543 34.2514 15.3393 34.2514 16.3171C34.2514 17.5507 34.7571 18.5075 35.7648 19.1786C36.2095 19.4829 36.6994 19.7604 37.2342 20.0113L37.2359 20.0119C37.7676 20.2482 38.2931 20.478 38.8121 20.7012L38.8128 20.7014C39.3413 20.9232 39.8244 21.1644 40.2615 21.4247C41.226 22.0025 41.7008 22.7978 41.7008 23.8156C41.7008 24.748 41.3368 25.4501 40.6086 25.933C39.8848 26.4084 39.0058 26.6482 37.9679 26.6482C37.2629 26.6482 36.5707 26.5446 35.8912 26.337C35.2236 26.1161 34.6818 25.838 34.2632 25.5042L34.1938 25.4489L34.1467 25.5249L34.0495 25.6822L34.0098 25.7468L34.0712 25.7906C35.2147 26.6018 36.5928 27.0056 38.2013 27.0056C39.0627 27.0056 39.8166 26.9065 40.4613 26.7068L40.4622 26.7065C41.1265 26.4915 41.6905 26.088 42.1533 25.4992C42.6194 24.9063 42.8514 24.1927 42.8514 23.363C42.8514 22.5284 42.714 21.8387 42.434 21.2988C42.1564 20.7505 41.7914 20.3199 41.3382 20.0097C40.8931 19.705 40.4027 19.4337 39.8669 19.1958C39.3338 18.9589 38.8004 18.7482 38.2669 18.5639C37.7512 18.3682 37.2747 18.1596 36.8371 17.9382C35.8726 17.4243 35.402 16.7076 35.402 15.7857C35.402 15.0217 35.6836 14.4295 36.2458 13.9997C36.8107 13.5677 37.602 13.3467 38.6293 13.3467C39.6679 13.3467 40.7735 13.5738 41.946 14.0302ZM53.0044 18.2875L53.0041 18.2879C52.1039 19.2122 51.6587 20.5076 51.6587 22.1624C51.6587 23.8158 52.0902 25.0551 52.9684 25.863C53.8413 26.6658 54.97 27.0646 56.3477 27.0646C57.7408 27.0646 58.89 26.6049 59.7881 25.683C60.7015 24.7587 61.1533 23.4632 61.1533 21.8082C61.1533 20.1548 60.7218 18.9155 59.8437 18.1077C58.9705 17.3046 57.8352 16.9059 56.4448 16.9059C55.0641 16.9059 53.9152 17.3658 53.0044 18.2875ZM54.0966 18.53L54.0971 18.5296C54.7324 17.6553 55.5265 17.2239 56.4837 17.2239C57.4458 17.2239 58.2135 17.5938 58.7945 18.3351C59.3747 19.0754 59.6719 20.228 59.6719 21.8082C59.6719 23.3723 59.3498 24.5868 58.7152 25.4603C58.0801 26.3215 57.2858 26.7468 56.3281 26.7468C55.3662 26.7468 54.5982 26.3768 54.0173 25.6356C53.4371 24.8951 53.1399 23.7489 53.1399 22.1821C53.1399 20.6043 53.4622 19.3903 54.0966 18.53ZM74.4051 17.1263L74.3472 17.1849L74.4069 17.2416C74.5938 17.4188 74.6931 17.6832 74.6931 18.049C74.6931 18.4183 74.6175 18.7321 74.47 18.9932L74.4684 18.9963L74.4669 18.9994L71.7269 25.0037L68.8173 17.0371L68.7982 16.9847H68.7429H67.3815H67.2679L67.3069 17.0926L68.0154 19.0493L65.3084 25.0034L62.3989 17.0371L62.3797 16.9847H62.3244H60.9629H60.8488L60.8886 17.0929L64.5062 26.9337L64.5255 26.9858H64.5806H64.7752H64.8262L64.8474 26.9389L68.1909 19.4992L70.9248 26.9337L70.9439 26.9858H70.9992H71.1935H71.2446L71.2658 26.9389L74.8058 19.0663L74.8065 19.0647C74.9658 18.6886 75.0462 18.3171 75.0462 17.9506C75.0462 17.8525 75.0326 17.7491 75.006 17.6405C74.99 17.5197 74.9314 17.3916 74.8389 17.2574C74.7994 17.1909 74.7618 17.1354 74.7262 17.0923C74.6914 17.0498 74.6538 17.0136 74.6133 16.9932L74.5622 16.9673L74.5218 17.0082L74.4051 17.1263Z" fill="#B0B0B0"/>
<path d="M50.0462 26.6122C49.7662 26.3694 49.6055 26.1149 49.5907 25.8475M50.0462 26.6122L49.5907 25.8475M50.0462 26.6122L50.0476 26.6134C50.3521 26.8656 50.7811 26.9858 51.3232 26.9858H52.5095H52.5888V26.9056V26.7482V26.668H52.5095H51.9138L51.7069 26.6299L51.7032 26.6292L51.6992 26.6289C51.5759 26.6184 51.4387 26.5339 51.2895 26.3461C51.1606 26.1546 51.0912 25.8787 51.0912 25.5082V19.348C51.0912 18.6911 50.9253 18.1472 50.5874 17.7231L50.5865 17.7218C50.3653 17.456 50.0185 17.2596 49.5568 17.1259C49.1053 16.9783 48.5194 16.9059 47.8027 16.9059C47.0695 16.9059 46.3973 17.1627 45.7881 17.6719C45.3011 18.0685 44.9347 18.4934 44.6924 18.9473V17.0649V16.9847H44.6128H43.2514H43.1721V17.0649V26.9056V26.9858H43.2514H44.6128H44.6924V26.9056V19.9187C44.6924 19.4272 45.0034 18.8566 45.6604 18.2047L45.6611 18.2042C46.3095 17.548 47.0354 17.2239 47.8415 17.2239C48.2347 17.2239 48.5587 17.288 48.8171 17.4121C49.3074 17.6794 49.5712 18.301 49.5712 19.3283V25.5082V25.5106V25.513L49.5907 25.8475M41.946 14.0302L42.0192 14.0586L42.0481 13.9851L42.126 13.7883L42.1573 13.7092L42.0775 13.6823C40.7474 13.2337 39.4359 13.009 38.1429 13.009C36.8613 13.009 35.8855 13.3132 35.2298 13.9358C34.5766 14.543 34.2514 15.3393 34.2514 16.3171C34.2514 17.5507 34.7571 18.5075 35.7648 19.1786C36.2095 19.4829 36.6994 19.7604 37.2342 20.0113L37.2359 20.0119C37.7676 20.2482 38.2931 20.478 38.8121 20.7012L38.8128 20.7014C39.3413 20.9232 39.8244 21.1644 40.2615 21.4247C41.226 22.0025 41.7008 22.7978 41.7008 23.8156C41.7008 24.748 41.3368 25.4501 40.6086 25.933C39.8848 26.4084 39.0058 26.6482 37.9679 26.6482C37.2629 26.6482 36.5707 26.5446 35.8912 26.337C35.2236 26.1161 34.6818 25.838 34.2632 25.5042L34.1938 25.4489L34.1467 25.5249L34.0495 25.6822L34.0098 25.7468L34.0712 25.7906C35.2147 26.6018 36.5928 27.0056 38.2013 27.0056C39.0627 27.0056 39.8166 26.9065 40.4613 26.7068L40.4622 26.7065C41.1265 26.4915 41.6905 26.088 42.1533 25.4992C42.6194 24.9063 42.8514 24.1927 42.8514 23.363C42.8514 22.5284 42.714 21.8387 42.434 21.2988C42.1564 20.7505 41.7914 20.3199 41.3382 20.0097C40.8931 19.705 40.4027 19.4337 39.8669 19.1958C39.3338 18.9589 38.8004 18.7482 38.2669 18.5639C37.7512 18.3682 37.2747 18.1596 36.8371 17.9382C35.8726 17.4243 35.402 16.7076 35.402 15.7857C35.402 15.0217 35.6836 14.4295 36.2458 13.9997C36.8107 13.5677 37.602 13.3467 38.6293 13.3467C39.6679 13.3467 40.7735 13.5738 41.946 14.0302ZM53.0044 18.2875L53.0041 18.2879C52.1039 19.2122 51.6587 20.5076 51.6587 22.1624C51.6587 23.8158 52.0902 25.0551 52.9684 25.863C53.8413 26.6658 54.97 27.0646 56.3477 27.0646C57.7408 27.0646 58.89 26.6049 59.7881 25.683C60.7015 24.7587 61.1533 23.4632 61.1533 21.8082C61.1533 20.1548 60.7218 18.9155 59.8437 18.1077C58.9705 17.3046 57.8352 16.9059 56.4448 16.9059C55.0641 16.9059 53.9152 17.3658 53.0044 18.2875ZM54.0966 18.53L54.0971 18.5296C54.7324 17.6553 55.5265 17.2239 56.4837 17.2239C57.4458 17.2239 58.2135 17.5938 58.7945 18.3351C59.3747 19.0754 59.6719 20.228 59.6719 21.8082C59.6719 23.3723 59.3498 24.5868 58.7152 25.4603C58.0801 26.3215 57.2858 26.7468 56.3281 26.7468C55.3662 26.7468 54.5982 26.3768 54.0173 25.6356C53.4371 24.8951 53.1399 23.7489 53.1399 22.1821C53.1399 20.6043 53.4622 19.3903 54.0966 18.53ZM74.4051 17.1263L74.3472 17.1849L74.4069 17.2416C74.5938 17.4188 74.6931 17.6832 74.6931 18.049C74.6931 18.4183 74.6175 18.7321 74.47 18.9932L74.4684 18.9963L74.4669 18.9994L71.7269 25.0037L68.8173 17.0371L68.7982 16.9847H68.7429H67.3815H67.2679L67.3069 17.0926L68.0154 19.0493L65.3084 25.0034L62.3989 17.0371L62.3797 16.9847H62.3244H60.9629H60.8488L60.8886 17.0929L64.5062 26.9337L64.5255 26.9858H64.5806H64.7752H64.8262L64.8474 26.9389L68.1909 19.4992L70.9248 26.9337L70.9439 26.9858H70.9992H71.1935H71.2446L71.2658 26.9389L74.8058 19.0663L74.8065 19.0647C74.9658 18.6886 75.0462 18.3171 75.0462 17.9506C75.0462 17.8525 75.0326 17.7491 75.006 17.6405C74.99 17.5197 74.9314 17.3916 74.8389 17.2574C74.7994 17.1909 74.7618 17.1354 74.7262 17.0923C74.6914 17.0498 74.6538 17.0136 74.6133 16.9932L74.5622 16.9673L74.5218 17.0082L74.4051 17.1263Z" stroke="#B0B0B0" stroke-width="0.674298"/>
<path d="M78.0596 13.2709C78.4245 12.7047 79.0165 12.2661 79.8384 12.2273L79.6667 25.6451V25.646C79.6667 25.7675 79.7041 25.8979 79.7723 26.0363C80.0916 26.6827 80.8535 26.9858 82.0022 26.9858H82.605H82.6845V26.9056V26.7482V26.6679H82.605H82.0093L81.8024 26.6298L81.7987 26.6291L81.7949 26.6289C81.6714 26.6184 81.5344 26.5339 81.3853 26.346C81.2561 26.1546 81.1869 25.8787 81.1869 25.5082V12.1643V12.0853L81.1088 12.084L79.9201 12.0643L79.8405 12.063L79.8403 12.0654C78.5095 12.0896 77.5253 12.4063 76.9067 13.0322C76.2747 13.6583 75.9688 14.7018 75.9688 16.1399V16.9847H75.6398H75.5605V17.0649V17.3829V17.4632H75.6398H75.9688V26.9056V26.9858H76.0483H77.4097H77.489V26.9056V17.4632H78.9462H79.0255V17.3829V17.0649V16.9847H78.9462H77.489V16.1399C77.489 14.7922 77.6838 13.8415 78.0591 13.2716L78.0596 13.2709ZM88.4165 22.0947C88.1511 22.0732 87.8598 22.0625 87.5429 22.0625C87.1902 22.0625 86.8055 22.0822 86.389 22.1217C85.5504 22.1744 84.8563 22.2733 84.3086 22.4194C83.7617 22.5652 83.353 22.7599 83.0926 23.0095C82.842 23.2497 82.6805 23.4786 82.6231 23.6966C82.5697 23.8989 82.5427 24.0896 82.5427 24.2684C82.5427 24.4301 82.5558 24.5917 82.5824 24.7532C82.6949 25.5153 82.9893 26.0967 83.4721 26.4863C83.9542 26.8751 84.614 27.0646 85.4422 27.0646C86.1535 27.0646 86.7721 26.9163 87.2951 26.6163C87.7415 26.3601 88.1154 25.9953 88.4165 25.5239V25.646C88.4165 25.8913 88.5876 26.1606 88.8871 26.4508C89.2354 26.816 89.8669 26.9858 90.7521 26.9858H91.3549H91.4342V26.9056V26.7482V26.6679H91.3549H90.7591L90.5523 26.6298L90.5485 26.6291L90.5445 26.6289C90.4213 26.6184 90.2843 26.5339 90.1351 26.346C90.006 26.1546 89.9365 25.8787 89.9365 25.5082V18.915C89.9365 18.4713 89.758 18.0528 89.4109 17.661C89.1831 17.4027 88.8398 17.2146 88.3902 17.0908C87.9403 16.9669 87.3784 16.9059 86.7064 16.9059C85.5013 16.9059 84.3165 17.1778 83.1528 17.7202L83.0742 17.7569L83.1173 17.833L83.1949 17.9707L83.2342 18.0401L83.3029 18.0008C83.5921 17.8354 84.0509 17.6669 84.6845 17.4968L84.6855 17.4965C85.3295 17.314 85.886 17.2239 86.3563 17.2239C86.83 17.2239 87.2071 17.2888 87.4916 17.4141L87.4944 17.4152C87.7855 17.5305 87.9765 17.6672 88.0805 17.8192C88.1935 17.9843 88.281 18.1552 88.3434 18.3318L88.3445 18.3352L88.346 18.3385C88.4201 18.5008 88.4389 18.6258 88.4187 18.7195C88.4053 18.7735 88.397 18.8217 88.397 18.8608C88.397 18.8805 88.3991 18.9027 88.4067 18.924C88.4093 18.9308 88.4123 18.9379 88.4165 18.945V22.0947ZM84.1015 24.7339L84.1013 24.7327C84.0885 24.6034 84.0822 24.4882 84.0822 24.3865C84.0822 23.8232 84.2276 23.392 84.5085 23.0827C84.6453 22.9325 84.8664 22.8003 85.181 22.691C85.4949 22.582 85.8956 22.4976 86.3848 22.439C86.7318 22.4 87.0791 22.3805 87.4262 22.3805C87.762 22.3805 88.0921 22.3917 88.4165 22.4143V24.7175C88.3791 25.1315 88.0996 25.5784 87.5495 26.0575C87.0187 26.5179 86.4208 26.7467 85.7535 26.7467C85.2542 26.7467 84.8744 26.5803 84.6034 26.2537C84.3297 25.9239 84.1591 25.421 84.1015 24.7339ZM93.0881 12.1446V12.0643H93.0085H91.6471H91.5678V12.1446V26.9056V26.9858H91.6471H93.0085H93.0881V26.9056V22.1925L93.526 21.6835L97.0664 26.9508L97.09 26.9858H97.1321H98.4935H98.6434L98.5591 26.8606L94.4121 20.6928L97.5415 17.1182L97.6584 16.9847H97.4822H97.2876H97.2521L97.2283 17.0117L93.0881 21.7345V12.1446ZM106.122 26.2048L106.092 26.1339L106.021 26.1615C105.02 26.551 103.876 26.7467 102.587 26.7467C101.693 26.7467 100.97 26.3787 100.414 25.6372C99.8718 24.8968 99.5937 23.724 99.5937 22.1034C99.5937 21.7512 99.6104 21.4105 99.6441 21.0815H106.516H106.596V21.0012V21.0008V21.0004V21.0001V20.9997V20.9993V20.9989V20.9985V20.9981V20.9978V20.9974V20.997V20.9966V20.9962V20.9958V20.9954V20.9951V20.9947V20.9943V20.9939V20.9935V20.9931V20.9927V20.9924V20.992V20.9916V20.9912V20.9908V20.9904V20.9901V20.9897V20.9893V20.9889V20.9885V20.9881V20.9878V20.9874V20.987V20.9866V20.9862V20.9858V20.9854V20.9851V20.9847V20.9843V20.9839V20.9835V20.9831V20.9827V20.9824V20.982V20.9816V20.9812V20.9808V20.9804V20.9801V20.9797V20.9793V20.9789V20.9785V20.9781V20.9778V20.9774V20.977V20.9766V20.9762V20.9758V20.9754V20.9751V20.9747V20.9743V20.9739V20.9735V20.9732V20.9727V20.9724V20.972V20.9716V20.9712V20.9708V20.9705V20.9701V20.9697V20.9693V20.9689V20.9685V20.9682V20.9678V20.9674V20.967V20.9666V20.9662V20.9658V20.9655V20.9651V20.9647V20.9643V20.9639V20.9635V20.9632V20.9628V20.9624V20.962V20.9616V20.9612V20.9608V20.9605V20.9601V20.9597V20.9593V20.9589V20.9585V20.9582V20.9578V20.9574V20.957V20.9566V20.9562V20.9558V20.9555V20.9551V20.9547V20.9543V20.9539V20.9535V20.9532V20.9528V20.9524V20.952V20.9516V20.9512V20.9508V20.9505V20.9501V20.9497V20.9493V20.9489V20.9485V20.9482V20.9478V20.9474V20.947V20.9466V20.9462V20.9458V20.9455V20.9451V20.9447V20.9443V20.9439V20.9435V20.9432V20.9428V20.9424V20.942V20.9416V20.9413V20.9408V20.9405V20.9401V20.9397V20.9393V20.9389V20.9386V20.9382V20.9378V20.9374V20.937V20.9366V20.9363V20.9359V20.9355V20.9351V20.9347V20.9343V20.9339V20.9336V20.9332V20.9328V20.9324V20.932V20.9316V20.9312V20.9309V20.9305V20.9301V20.9297V20.9293V20.9289V20.9286V20.9282V20.9278V20.9274V20.927V20.9266V20.9263V20.9259V20.9255V20.9251V20.9247V20.9243V20.9239V20.9236V20.9232V20.9228V20.9224V20.922V20.9216V20.9212V20.9209V20.9205V20.9201V20.9197V20.9193V20.9189V20.9186V20.9182V20.9178V20.9174V20.917V20.9166V20.9163V20.9159V20.9155V20.9151V20.9147V20.9143V20.9139V20.9136V20.9132V20.9128V20.9124V20.912V20.9116V20.9112V20.9109V20.9105V20.9101V20.9097V20.9093V20.9089V20.9086V20.9082V20.9078V20.9074V20.907V20.9067V20.9062V20.9059V20.9055V20.9051V20.9047V20.9043V20.904V20.9036V20.9032V20.9028V20.9024V20.902V20.9017V20.9013V20.9009V20.9005V20.9001V20.8997V20.8993V20.899V20.8986V20.8982V20.8978V20.8974V20.897V20.8967V20.8963V20.8959V20.8955V20.8951V20.8947V20.8943V20.894V20.8936V20.8932V20.8928V20.8924V20.892V20.8917V20.8913V20.8909V20.8905V20.8901V20.8897V20.8893V20.889V20.8886V20.8882V20.8878V20.8874V20.887V20.8867V20.8863V20.8859V20.8855V20.8851V20.8847V20.8843V20.884V20.8836V20.8832V20.8828V20.8824V20.882V20.8817V20.8813V20.8809V20.8805V20.8801V20.8797V20.8793V20.879V20.8786V20.8782V20.8778V20.8774V20.877V20.8767V20.8763V20.8759V20.8755V20.8751V20.8748V20.8743V20.874V20.8736V20.8732V20.8728V20.8724V20.8721V20.8717V20.8713V20.8709V20.8705V20.8701V20.8698V20.8694V20.869V20.8686V20.8682V20.8678V20.8674V20.8671V20.8667V20.8663V20.8659V20.8655V20.8651V20.8647V20.8644V20.864V20.8636V20.8632V20.8628V20.8624V20.8621V20.8617V20.8613V20.8609V20.8605V20.8601V20.8598V20.8594V20.859V20.8586V20.8582V20.8578V20.8574V20.8571V20.8567V20.8563V20.8559V20.8555V20.8551V20.8548V20.8544V20.854V20.8536V20.8532V20.8528V20.8524V20.8521V20.8517V20.8513V20.8509V20.8505V20.8501V20.8498V20.8494V20.849V20.8486V20.8482V20.8478V20.8474V20.8471V20.8467V20.8463V20.8459V20.8455V20.8451V20.8448V20.8444V20.844V20.8436V20.8432V20.8428V20.8424V20.8421V20.8417V20.8413V20.8409V20.8405V20.8401V20.8398V20.8394V20.839V20.8386V20.8382V20.8378V20.8374V20.8371V20.8367V20.8363V20.8359V20.8355V20.8352V20.8348V20.8344V20.834V20.8336V20.8332V20.8328V20.8325V20.8321V20.8317V20.8313V20.8309V20.8305V20.8302V20.8298V20.8294V20.829V20.8286V20.8282V20.8278V20.8275V20.8271V20.8267V20.8263V20.8259V20.8255V20.8252V20.8248V20.8244V20.824V20.8236V20.8232V20.8228V20.8225V20.8221V20.8217V20.8213V20.8209V20.8205V20.8202V20.8198V20.8194V20.819V20.8186V20.8182V20.8178V20.8175V20.8171V20.8167V20.8163V20.8159V20.8155V20.8152V20.8148V20.8144V20.814V20.8136V20.8132V20.8128V20.8125V20.8121V20.8117V20.8113V20.8109V20.8105V20.8102V20.8098V20.8094V20.809V20.8086V20.8082V20.8078V20.8075V20.8071V20.8067V20.8063V20.8059V20.8055V20.8052V20.8048V20.8044C106.596 19.5288 106.227 18.5525 105.479 17.8902C104.737 17.2331 103.823 16.9059 102.743 16.9059C101.4 16.9059 100.29 17.3664 99.4182 18.2887C98.5443 19.2132 98.1123 20.5082 98.1123 22.1624C98.1123 23.8148 98.5238 25.0537 99.3624 25.8615C100.196 26.6653 101.274 27.0646 102.587 27.0646C103.905 27.0646 105.089 26.8601 106.137 26.4491L106.213 26.4191L106.181 26.3427L106.122 26.2048ZM104.412 18.0985C104.853 18.669 105.091 19.5528 105.113 20.7635H99.6836C99.8441 19.6634 100.198 18.8047 100.741 18.1811C101.312 17.5388 101.953 17.2239 102.665 17.2239C103.379 17.2239 103.959 17.5138 104.412 18.0985Z" fill="#B0B0B0" stroke="#B0B0B0" stroke-width="0.674298"/>
<path d="M108.311 11.938V12.4579H107.727V14.0399H107.172V12.4579H106.588V11.938H108.311Z" fill="#B0B0B0"/>
<path d="M110.588 11.9065V14.0494H110.033V13.0094L109.627 13.4979H109.461L109.055 13.0094V14.0494H108.5V11.9065H108.696L109.544 12.8204L110.392 11.9065H110.588Z" fill="#B0B0B0"/>
<path fill-rule="evenodd" clip-rule="evenodd" d="M18.9371 23.4821L18.9287 30.2398L20.3404 30.2418L20.3489 23.4524L22.9243 29.7218L24.2279 29.1734L21.6702 22.9471L26.3759 27.721L27.3754 26.712L22.6496 21.9177L28.8305 24.5134L29.3714 23.1939L23.1899 20.5979H29.8827V19.1694H23.206L29.3773 16.5903L28.8382 15.2699L22.6934 17.838L27.4185 13.1055L26.4255 12.0902L21.6417 16.8813L24.2196 10.5898L22.9154 10.0427L20.3579 16.2845L20.3664 9.52744L18.9546 9.52563L18.9461 16.3156L16.3705 10.0457L15.0669 10.5941L17.6243 16.8197L12.919 12.0463L11.9195 13.0552L16.6455 17.8496L10.4645 15.2538L9.92336 16.5733L16.1052 19.1694H9.41211V20.5979H16.0893L9.91783 23.1771L10.4567 24.4975L16.6013 21.9296L11.8763 26.662L12.8695 27.6772L17.653 22.8863L15.0752 29.1775L16.3793 29.7246L18.9371 23.4821Z" fill="#B0B0B0"/>
</svg>
