<svg width="120" height="15" viewBox="0 0 120 15" fill="none" xmlns="http://www.w3.org/2000/svg">
<g clip-path="url(#clip0_14241_16433)">
<path d="M7.45924 14.9593C6.39645 14.9593 5.41237 14.7756 4.50703 14.4083C3.60168 14.0273 2.80787 13.5035 2.12559 12.8368C1.45642 12.1566 0.931585 11.3606 0.551079 10.4491C0.183692 9.53751 0 8.55112 0 7.4899C0 6.41506 0.183692 5.42867 0.551079 4.53071C0.931585 3.61915 1.45642 2.83003 2.12559 2.16336C2.80787 1.4967 3.59513 0.972888 4.48735 0.591936C5.3927 0.210983 6.3702 0.0205078 7.41987 0.0205078C8.52204 0.0205078 9.51266 0.204181 10.3918 0.571528C11.2709 0.92527 12.045 1.42187 12.7142 2.06131L10.3524 4.5103C10.0244 4.12935 9.61764 3.83003 9.13216 3.61235C8.64669 3.39465 8.07592 3.28582 7.41987 3.28582C6.85568 3.28582 6.33741 3.38105 5.86505 3.57153C5.40581 3.762 5.00564 4.04772 4.66449 4.42867C4.32334 4.79601 4.05436 5.2382 3.85755 5.7552C3.67386 6.27221 3.58201 6.85043 3.58201 7.4899C3.58201 8.12935 3.67386 8.70758 3.85755 9.22458C4.05436 9.7416 4.32334 10.1906 4.66449 10.5715C5.00564 10.9389 5.40581 11.2246 5.86505 11.4287C6.33741 11.6191 6.85568 11.7144 7.41987 11.7144C8.07592 11.7144 8.65325 11.6123 9.15184 11.4083C9.65043 11.1906 10.0769 10.8844 10.4311 10.4899L12.7929 12.9389C12.1106 13.5783 11.3365 14.0749 10.4705 14.4287C9.61764 14.7824 8.61388 14.9593 7.45924 14.9593Z" fill="#B0B0B0"/>
<path d="M12.9473 14.7348L18.3596 0.265381H21.7645L27.1179 14.7348H23.4374L19.4027 2.57151H20.6821L16.5489 14.7348H12.9473Z" fill="#B0B0B0"/>
<path d="M28.4238 14.7348V0.265381H31.9467V14.7348H28.4238ZM31.2185 14.7348V11.5919H37.9495V14.7348H31.2185Z" fill="#B0B0B0"/>
<path d="M39.5898 14.7348V0.265381H43.1128V14.7348H39.5898Z" fill="#B0B0B0"/>
<path d="M45.5879 14.7348V0.265381H49.1108V14.7348H45.5879ZM48.3825 9.32661V6.24497H55.2907V9.32661H48.3825ZM48.3825 3.34701V0.265381H55.6057V3.34701H48.3825Z" fill="#B0B0B0"/>
<path d="M64.0826 15C63.0067 15 62.016 14.8095 61.1106 14.4286C60.2054 14.0476 59.4115 13.517 58.7292 12.8367C58.0601 12.1565 57.5352 11.3606 57.1547 10.449C56.7743 9.52382 56.584 8.53062 56.584 7.46938C56.584 6.40817 56.7676 5.42857 57.1351 4.53062C57.5155 3.61905 58.0403 2.82313 58.7095 2.14285C59.3788 1.46258 60.166 0.938777 61.0713 0.57143C61.9767 0.190477 62.9673 0 64.0433 0C65.1192 0 66.1098 0.190477 67.0151 0.57143C67.9205 0.938777 68.7077 1.46258 69.3769 2.14285C70.046 2.82313 70.5644 3.61905 70.9317 4.53062C71.3122 5.44218 71.5025 6.42857 71.5025 7.4898C71.5025 8.55102 71.3122 9.53742 70.9317 10.449C70.5644 11.3606 70.046 12.1633 69.3769 12.8572C68.7077 13.5374 67.9205 14.068 67.0151 14.449C66.1229 14.8163 65.1454 15 64.0826 15ZM64.0433 11.7347C64.8305 11.7347 65.5127 11.5578 66.0901 11.2041C66.6674 10.8503 67.1135 10.3538 67.4284 9.71428C67.7433 9.07483 67.9007 8.32653 67.9007 7.46938C67.9007 6.84353 67.8089 6.27212 67.6253 5.7551C67.4546 5.2381 67.1989 4.79592 66.8577 4.42857C66.5164 4.04762 66.1098 3.7551 65.6374 3.55102C65.165 3.34693 64.6337 3.2449 64.0433 3.2449C63.256 3.2449 62.5736 3.42177 61.9963 3.77552C61.419 4.11565 60.973 4.60545 60.658 5.2449C60.3432 5.88435 60.1856 6.62585 60.1856 7.46938C60.1856 8.12245 60.2709 8.71428 60.4415 9.2449C60.6253 9.7619 60.8876 10.2109 61.2288 10.5918C61.5699 10.9592 61.9767 11.2449 62.4491 11.449C62.9213 11.6395 63.4528 11.7347 64.0433 11.7347Z" fill="#B0B0B0"/>
<path d="M76.0583 8.87762V6.26537H78.7153C79.2927 6.26537 79.7322 6.12252 80.034 5.83681C80.3489 5.53749 80.5064 5.13612 80.5064 4.63272C80.5064 4.14292 80.3489 3.74837 80.034 3.44906C79.7322 3.13612 79.2927 2.97967 78.7153 2.97967H76.0583V0.265381H79.2073C80.1521 0.265381 80.9787 0.449054 81.6872 0.816401C82.4089 1.18375 82.9731 1.68716 83.3798 2.32661C83.7866 2.96606 83.99 3.71436 83.99 4.57151C83.99 5.42864 83.7799 6.18374 83.3602 6.83681C82.9534 7.47626 82.3827 7.97967 81.6478 8.34701C80.9131 8.70076 80.0536 8.87762 79.0697 8.87762H76.0583ZM73.2637 14.7348V0.265381H76.7866V14.7348H73.2637ZM80.8212 14.7348L76.7668 8.53069L79.9356 7.73477L84.8952 14.7348H80.8212Z" fill="#B0B0B0"/>
<path d="M86.0449 14.7348V0.265381H88.5052L89.568 3.22456V14.7348H86.0449ZM95.6692 14.7348L87.521 4.00007L88.5052 0.265381L96.6729 11.0001L95.6692 14.7348ZM95.6692 14.7348L94.7638 11.694V0.265381H98.2869V14.7348H95.6692Z" fill="#B0B0B0"/>
<path d="M100.768 14.7348V0.265381H104.291V14.7348H100.768Z" fill="#B0B0B0"/>
<path d="M105.74 14.7348L111.153 0.265381H114.558L119.911 14.7348H116.23L112.196 2.57151H113.475L109.342 14.7348H105.74Z" fill="#B0B0B0"/>
</g>
<defs>
<clipPath id="clip0_14241_16433">
<rect width="120" height="15" fill="white"/>
</clipPath>
</defs>
</svg>
