<svg width="15" height="254" viewBox="0 0 15 254" fill="none" xmlns="http://www.w3.org/2000/svg">
<path d="M8.2071 0.792892C7.81658 0.402367 7.18341 0.402367 6.79289 0.792892L0.428928 7.15685C0.0384037 7.54738 0.0384037 8.18054 0.428928 8.57107C0.819453 8.96159 1.45262 8.96159 1.84314 8.57107L7.5 2.91422L13.1569 8.57107C13.5474 8.96159 14.1805 8.96159 14.5711 8.57107C14.9616 8.18054 14.9616 7.54738 14.5711 7.15685L8.2071 0.792892ZM7.5 101.5L8.5 101.5L8.5 1.5L7.5 1.5L6.5 1.5L6.5 101.5L7.5 101.5Z" fill="black"/>
<path d="M8.20711 253.207C7.81659 253.598 7.18342 253.598 6.7929 253.207L0.428936 246.843C0.0384119 246.453 0.0384119 245.819 0.428936 245.429C0.819461 245.038 1.45263 245.038 1.84315 245.429L7.5 251.086L13.1569 245.429C13.5474 245.038 14.1805 245.038 14.5711 245.429C14.9616 245.819 14.9616 246.453 14.5711 246.843L8.20711 253.207ZM7.5 152.5L8.5 152.5L8.5 252.5L7.5 252.5L6.5 252.5L6.5 152.5L7.5 152.5Z" fill="black"/>
</svg>
