<svg width="15" height="14" viewBox="0 0 15 14" fill="none" xmlns="http://www.w3.org/2000/svg">
<path d="M14.4225 5.38804L12.9863 4.19022C12.7612 4.00247 12.4929 3.88697 12.2307 3.86486C11.9261 3.84039 11.6525 3.94377 11.4793 4.15125L10.3615 5.49142L6.09671 10.6057L6.09956 10.608C6.04561 10.6727 6.01234 10.7537 6.01424 10.8414L6.07056 13.6152C6.0727 13.7209 6.12166 13.8203 6.20437 13.8863C6.26806 13.9374 6.34673 13.9645 6.42706 13.9645C6.45082 13.9645 6.47459 13.9621 6.49812 13.9574L9.16634 13.4148C9.24714 13.3984 9.31559 13.3528 9.36645 13.2917L9.36906 13.2938L13.6137 8.20408L14.7314 6.86391C15.0672 6.4606 14.9313 5.8125 14.4225 5.38804ZM6.77452 13.1731L6.74243 11.5993L8.28842 12.8651L6.77452 13.1731ZM9.04727 12.5654L6.87433 10.786L10.6807 6.22199L12.8375 8.02061L9.04727 12.5654ZM14.1836 6.40689L13.2943 7.47304L11.1375 5.67442L12.0268 4.60803C12.0482 4.58236 12.1043 4.57001 12.1709 4.57547C12.2866 4.58522 12.4173 4.64439 12.5292 4.73779L13.9654 5.93561C14.1891 6.12193 14.234 6.34676 14.1836 6.40689Z" fill="#031066"/>
<path d="M4.83665 11.119C4.81858 11.1073 4.79981 11.0983 4.7808 11.0902C4.77866 11.0893 4.77675 11.0879 4.77462 11.0871C4.73326 11.0705 4.69001 11.0629 4.64699 11.0624C4.64462 11.0624 4.64248 11.0619 4.64034 11.0619C4.59661 11.0622 4.55335 11.071 4.51271 11.0867C4.51057 11.0874 4.50867 11.0879 4.50653 11.0886C4.46399 11.1062 4.42454 11.1318 4.39079 11.1653C4.39055 11.1656 4.39032 11.1656 4.39008 11.1658L4.38937 11.1665C4.38889 11.167 4.38818 11.1677 4.3877 11.1682L3.4853 12.0703C3.28614 12.2683 2.96364 12.2683 2.76614 12.0713L2.5166 11.8217C2.31934 11.6245 2.31981 11.3017 2.5166 11.1038L3.42018 10.2002C3.42042 10.1999 3.42066 10.1997 3.42113 10.1992L3.42232 10.198C3.42256 10.1978 3.4228 10.1973 3.42304 10.1969C3.45631 10.1633 3.48198 10.1241 3.49956 10.0818C3.50051 10.0797 3.50075 10.0773 3.5017 10.0752C3.51739 10.0345 3.52618 9.99152 3.52642 9.94803C3.52642 9.94589 3.52594 9.94375 3.52594 9.94137C3.52547 9.89812 3.51763 9.85486 3.50099 9.81351C3.50028 9.81185 3.49909 9.81042 3.49837 9.80876C3.49029 9.78927 3.48103 9.77026 3.46914 9.75196C3.1723 9.29517 2.96411 8.79323 2.85027 8.26016C2.84908 8.25469 2.84671 8.24994 2.84528 8.24447C2.84077 8.22712 2.83577 8.20953 2.82888 8.19337C2.82532 8.18506 2.82009 8.17769 2.81605 8.16961C2.80939 8.15701 2.80322 8.14441 2.79537 8.13277C2.79014 8.12516 2.78373 8.11875 2.77802 8.11186C2.76923 8.10092 2.76067 8.08975 2.75069 8.08001C2.74546 8.07478 2.73928 8.07074 2.73382 8.06599C2.72194 8.05577 2.71005 8.04531 2.69698 8.03675C2.69223 8.03366 2.687 8.03153 2.68201 8.02867C2.66727 8.01988 2.6523 8.01132 2.63614 8.00491C2.6302 8.00253 2.62402 8.00134 2.61808 7.9992C2.60239 7.99374 2.58694 7.98827 2.57054 7.98518C2.55914 7.98304 2.54749 7.98281 2.53585 7.98162C2.52468 7.98043 2.51374 7.97829 2.5021 7.97829H1.22229C0.941377 7.97829 0.712984 7.7499 0.712984 7.46922V7.11986C0.712984 6.83918 0.941377 6.61079 1.22229 6.61079H2.50139H2.50257C2.50329 6.61079 2.504 6.61031 2.50471 6.61031C2.54179 6.61007 2.57696 6.60271 2.61047 6.59201C2.61618 6.59011 2.62188 6.58892 2.62758 6.58678C2.66014 6.57443 2.69009 6.55755 2.71742 6.53687C2.72265 6.53307 2.72716 6.52903 2.73215 6.52475C2.75877 6.50194 2.78278 6.47627 2.80179 6.4468C2.80417 6.443 2.80583 6.43896 2.80797 6.43516C2.82698 6.40307 2.84195 6.36814 2.85027 6.33058C2.85051 6.32987 2.85075 6.3294 2.85099 6.32868C2.96482 5.79585 3.17302 5.29391 3.46986 4.83665C3.48174 4.81835 3.49101 4.79933 3.49909 4.77984C3.4998 4.77818 3.50075 4.77675 3.50146 4.77509C3.5181 4.7335 3.52594 4.69025 3.52642 4.64699C3.52642 4.64485 3.52689 4.64271 3.52689 4.64057C3.52666 4.59685 3.51786 4.55383 3.50218 4.51319C3.50146 4.51105 3.50099 4.50891 3.50004 4.50677C3.48245 4.46423 3.45678 4.42478 3.42327 4.39103C3.42304 4.39079 3.42304 4.39056 3.4228 4.39032L3.42209 4.38961C3.42137 4.38889 3.42066 4.38818 3.41995 4.38747L2.51802 3.48554C2.32029 3.28638 2.31981 2.96364 2.51707 2.76638L2.76662 2.51683C2.96411 2.31957 3.28662 2.32005 3.48483 2.51683L4.39055 3.42256C4.39198 3.42399 4.39412 3.42446 4.39555 3.42589C4.42597 3.45536 4.46067 3.47746 4.49822 3.4941C4.50677 3.4979 4.51509 3.50075 4.52364 3.50384C4.56191 3.51739 4.60136 3.52666 4.642 3.52689H4.64271C4.68288 3.52689 4.72328 3.51763 4.76226 3.5036C4.7739 3.49956 4.78436 3.49362 4.79553 3.48839C4.80931 3.48174 4.82381 3.47794 4.83688 3.46938C5.29367 3.17254 5.79561 2.96435 6.32844 2.85051C6.33272 2.84956 6.33653 2.84766 6.3408 2.84647C6.35958 2.84172 6.37788 2.83649 6.39523 2.82912C6.40426 2.82532 6.4121 2.81985 6.42042 2.81534C6.4323 2.80892 6.44442 2.80322 6.45559 2.79561C6.4651 2.78896 6.47342 2.78111 6.48221 2.77351C6.49077 2.76614 6.50004 2.75949 6.50788 2.75141C6.51596 2.74332 6.52238 2.73406 6.52951 2.72502C6.53687 2.71599 6.54472 2.70768 6.5509 2.69793C6.55708 2.68866 6.56135 2.67868 6.56658 2.6687C6.57205 2.65824 6.57846 2.64826 6.58298 2.63733C6.58773 2.62544 6.59082 2.61309 6.59439 2.60073C6.59724 2.59098 6.60104 2.58148 6.60318 2.57126C6.60651 2.55438 6.60746 2.5368 6.60841 2.51945C6.60865 2.51351 6.61031 2.5078 6.61031 2.50162V2.49972C6.61031 2.49925 6.61031 2.49901 6.61031 2.49853V1.22205C6.61031 0.941377 6.8387 0.712984 7.11962 0.712984H7.46874C7.74966 0.712984 7.97805 0.941377 7.97805 1.22205V2.49925V2.49948V2.50186C7.97805 2.5097 7.97995 2.51683 7.98043 2.52468C7.98138 2.54036 7.98209 2.55605 7.98518 2.57126C7.98756 2.5829 7.9916 2.5936 7.99516 2.60477C7.99849 2.6157 8.00087 2.62687 8.00515 2.63733C8.0099 2.64921 8.01655 2.65991 8.02273 2.67108C8.02772 2.68011 8.03176 2.68961 8.03747 2.69817C8.04412 2.70815 8.05197 2.71694 8.05957 2.72598C8.06646 2.73453 8.07288 2.74356 8.08072 2.75164C8.08856 2.75972 8.0976 2.76638 8.10639 2.77351C8.11542 2.78111 8.12374 2.78919 8.13348 2.79585C8.14394 2.80298 8.15559 2.80844 8.16676 2.81462C8.17579 2.81961 8.18434 2.82532 8.19385 2.82936C8.20977 2.83625 8.22688 2.841 8.244 2.84552C8.2497 2.84694 8.25469 2.84956 8.26039 2.85075C8.79299 2.96459 9.29517 3.17278 9.75243 3.46962C9.76527 3.47794 9.77976 3.48174 9.79307 3.48839C9.80448 3.49386 9.81518 3.4998 9.82682 3.50384C9.8658 3.51786 9.90572 3.52713 9.94613 3.52713C9.987 3.52713 10.0269 3.51763 10.0652 3.50408C10.0738 3.50099 10.0821 3.49814 10.0906 3.49433C10.1282 3.4777 10.1629 3.4556 10.1933 3.42613C10.1947 3.4247 10.1969 3.42422 10.1985 3.4228L11.1031 2.51802C11.3022 2.32076 11.625 2.31981 11.8222 2.51707L12.0718 2.76662C12.2077 2.90256 12.2474 3.09744 12.1961 3.27069C12.2236 3.27141 12.2507 3.27046 12.2785 3.2726C12.4848 3.28995 12.6904 3.3477 12.8867 3.43587C12.9932 3.02923 12.8929 2.57934 12.5758 2.26254L12.3263 2.01299C11.8519 1.53862 11.0779 1.53814 10.5997 2.01299L9.88885 2.72407C9.51121 2.50804 9.11075 2.34168 8.69127 2.22736V1.22205C8.69127 0.548285 8.14299 0 7.46898 0H7.11986C6.44609 0 5.89757 0.548285 5.89757 1.22205V2.22712C5.47809 2.34168 5.0774 2.5078 4.69999 2.72384L3.98796 2.0118C3.51097 1.53791 2.73643 1.53838 2.26254 2.01275L2.01299 2.2623C1.53862 2.73643 1.53838 3.5105 2.01299 3.98891L2.72384 4.69975C2.5078 5.0774 2.34168 5.47786 2.22712 5.89733H1.22229C0.548522 5.89733 0 6.44561 0 7.11938V7.46874C0 8.14251 0.548285 8.6908 1.22229 8.6908H2.22712C2.34168 9.11051 2.5078 9.51097 2.72384 9.88837L2.01204 10.6004C1.53814 11.0774 1.53862 11.8515 2.01299 12.3258L2.26254 12.5754C2.49972 12.8126 2.81201 12.9312 3.12453 12.9312C3.43706 12.9312 3.75006 12.8128 3.98891 12.5754L4.69999 11.8645C4.93979 12.0019 5.19005 12.1164 5.44743 12.2132L5.43175 11.4396C5.22689 11.3471 5.02725 11.2426 4.83665 11.119Z" fill="#031066"/>
<path d="M4.69834 7.29481C4.69834 5.86361 5.86264 4.69931 7.29383 4.69931C8.14514 4.69931 8.89995 5.11332 9.37361 5.74835L9.8418 5.18699C9.23434 4.45405 8.31792 3.98633 7.29383 3.98633C5.46955 3.98633 3.98535 5.47052 3.98535 7.29481C3.98535 8.53231 4.66934 9.61177 5.67821 10.1793L6.14546 9.61914C5.2894 9.1942 4.69834 8.31343 4.69834 7.29481Z" fill="#031066"/>
</svg>
