<svg width="8" height="12" viewBox="0 0 8 12" fill="none" xmlns="http://www.w3.org/2000/svg">
<path d="M4.89014 8.2627H2.82425C2.73254 8.2627 2.65216 8.29734 2.5833 8.36608C2.51438 8.435 2.47998 8.51526 2.47998 8.60709V10.6731C2.47998 10.7649 2.5145 10.8453 2.5833 10.9141C2.65216 10.9828 2.73245 11.0174 2.82425 11.0174H4.89014C4.98185 11.0174 5.06244 10.9829 5.13103 10.9141C5.20007 10.8453 5.23453 10.7649 5.23453 10.6731V8.60709C5.23453 8.51526 5.20016 8.435 5.13103 8.36608C5.06244 8.29716 4.98185 8.2627 4.89014 8.2627Z" fill="#031066"/>
<path d="M7.60156 2.07882C7.36621 1.64533 7.06216 1.27968 6.68906 0.981206C6.31621 0.682849 5.89701 0.44458 5.43229 0.26676C4.96748 0.0890004 4.50556 0 4.04639 0C2.30199 0 0.970692 0.763227 0.0524678 2.28971C0.00661086 2.36427 -0.00921744 2.44459 0.00510343 2.53069C0.0195147 2.61668 0.0639849 2.68843 0.138574 2.74581L1.55028 3.82186C1.62487 3.86769 1.69662 3.89063 1.76552 3.89063C1.86884 3.89063 1.95772 3.84466 2.0324 3.75285C2.4455 3.23646 2.75257 2.9065 2.95339 2.76296C3.20019 2.5966 3.50998 2.51345 3.88298 2.51345C4.23302 2.51345 4.54138 2.60528 4.80832 2.78877C5.07514 2.97244 5.20843 3.18478 5.20843 3.42579C5.20843 3.69539 5.13683 3.91355 4.99332 4.07997C4.8499 4.24633 4.6088 4.40694 4.27016 4.56194C3.82269 4.76276 3.4122 5.07411 3.03938 5.4959C2.66628 5.91771 2.47987 6.36676 2.47987 6.84302V7.23035C2.47987 7.33949 2.50984 7.44703 2.5702 7.55319C2.6305 7.65943 2.70361 7.71247 2.78974 7.71247H4.8556C4.94743 7.71247 5.02769 7.66809 5.09661 7.57885C5.16532 7.49015 5.1999 7.39686 5.1999 7.29945C5.1999 7.15603 5.2788 6.96359 5.43648 6.7227C5.59431 6.48169 5.79079 6.295 6.02626 6.16298C6.24994 6.03677 6.4248 5.93505 6.55119 5.85748C6.67769 5.78011 6.84255 5.65502 7.04633 5.48299C7.25002 5.31078 7.40785 5.14005 7.51961 4.97082C7.63155 4.80156 7.73204 4.58201 7.82098 4.31224C7.9101 4.04255 7.95448 3.75273 7.95448 3.44289C7.95442 2.96659 7.83669 2.51185 7.60156 2.07882Z" fill="#031066"/>
</svg>
