<svg width="14" height="14" viewBox="0 0 14 14" fill="none" xmlns="http://www.w3.org/2000/svg">
<path d="M7.70068 9.79936V11.8995C7.70068 13.0545 8.64582 13.9996 9.80082 13.9996H11.901C13.056 13.9996 14.0011 13.0545 14.0011 11.8995V9.79936C14.0011 8.64435 13.056 7.69922 11.901 7.69922H9.80082C8.64582 7.69922 7.70068 8.64435 7.70068 9.79936Z" fill="#031066"/>
<path d="M7.70068 2.10014V4.20028C7.70068 5.35529 8.64582 6.30042 9.80082 6.30042H11.901C13.056 6.30042 14.0011 5.35529 14.0011 4.20028V2.10014C14.0011 0.945132 13.056 0 11.901 0H9.80082C8.64582 0 7.70068 0.945132 7.70068 2.10014Z" fill="#031066"/>
<path d="M4.76837e-07 9.79936V11.8995C4.76837e-07 13.0545 0.945132 13.9996 2.10014 13.9996H4.20028C5.35529 13.9996 6.30042 13.0545 6.30042 11.8995V9.79936C6.30042 8.64435 5.35529 7.69922 4.20028 7.69922H2.10014C0.945132 7.69922 4.76837e-07 8.64435 4.76837e-07 9.79936Z" fill="#031066"/>
<path d="M4.76837e-07 2.10014V4.20028C4.76837e-07 5.35529 0.945132 6.30042 2.10014 6.30042H4.20028C5.35529 6.30042 6.30042 5.35529 6.30042 4.20028V2.10014C6.30042 0.945132 5.35529 0 4.20028 0H2.10014C0.945132 0 4.76837e-07 0.945132 4.76837e-07 2.10014Z" fill="#031066"/>
</svg>
