<svg width="120" height="27" viewBox="0 0 120 27" fill="none" xmlns="http://www.w3.org/2000/svg">
<g clip-path="url(#clip0_14241_16411)">
<path d="M9.07052 26.547L2.35302 10.498C1.99881 9.64207 1.39157 9.07561 0.531329 8.79871L0 8.64766V8.27002H9.82957V8.64766L9.14644 8.79871C8.15967 9.05044 7.85605 9.70501 8.23559 10.7623L12.2206 21.298L15.9398 10.8379C16.1423 10.3343 16.1929 9.91897 16.0916 9.5917C15.9905 9.26443 15.6868 9.02527 15.1808 8.87422L14.232 8.64766V8.27002H19.735V8.64766L18.6344 8.91199C18.1537 9.03787 17.7742 9.22666 17.4959 9.47842C17.2429 9.73018 17.0278 10.1078 16.8507 10.6113L11.2717 26.547H9.07052Z" fill="#B0B0B0"/>
<path d="M29.5987 7.70337C31.2435 7.70337 32.6476 8.04324 33.8114 8.72295C34.9752 9.37749 35.8608 10.2838 36.468 11.4418C37.1006 12.5747 37.4168 13.8712 37.4168 15.3313C37.4168 15.6083 37.4042 15.8978 37.3788 16.1999C37.3535 16.4768 37.3029 16.7285 37.2272 16.9551H25.9174C25.9427 19.674 26.4234 21.6377 27.3596 22.846C28.321 24.0293 29.7379 24.6208 31.6101 24.6208C32.8752 24.6208 33.9001 24.4195 34.6843 24.0167C35.4688 23.6139 36.2024 23.0223 36.8856 22.2418L37.2652 22.5817C36.4807 23.9663 35.4308 25.0488 34.115 25.8293C32.8246 26.6097 31.2685 26.9999 29.4469 26.9999C27.6506 26.9999 26.0566 26.6222 24.665 25.867C23.2734 25.0866 22.1855 23.9789 21.4011 22.5439C20.6168 21.109 20.2246 19.3971 20.2246 17.4083C20.2246 15.3439 20.68 13.5943 21.5909 12.1593C22.5017 10.6992 23.6656 9.59148 25.0825 8.83623C26.5246 8.08101 28.0301 7.70337 29.5987 7.70337ZM29.4849 8.45862C28.7512 8.45862 28.1186 8.68518 27.5873 9.13833C27.0813 9.56631 26.6764 10.3467 26.3728 11.4796C26.0945 12.5873 25.9427 14.1607 25.9174 16.1999H32.4073C32.6603 13.4558 32.5589 11.4796 32.1037 10.2712C31.6481 9.06282 30.7752 8.45862 29.4849 8.45862Z" fill="#B0B0B0"/>
<path d="M39.6875 26.4334V26.0558L40.2188 25.9048C41.1043 25.653 41.5472 25.0362 41.5472 24.0544V12.2348C41.5472 11.681 41.4586 11.2782 41.2816 11.0264C41.1043 10.7495 40.7627 10.5607 40.2567 10.46L39.6875 10.309V9.93135L46.1771 7.74114L46.5567 8.11875L46.8604 10.3845C47.7459 9.60408 48.7454 8.96211 49.8586 8.45862C50.9717 7.95513 52.0725 7.70337 53.1604 7.70337C54.8304 7.70337 56.1079 8.15652 56.9934 9.06282C57.9043 9.96912 58.3599 11.3537 58.3599 13.2166V24.0922C58.3599 25.074 58.8405 25.6908 59.802 25.9425L60.1436 26.0558V26.4334H51.187V26.0558L51.6803 25.9048C52.5658 25.6279 53.0087 25.0111 53.0087 24.0544V12.0083C53.0087 10.3971 52.1989 9.59148 50.5798 9.59148C49.4663 9.59148 48.2518 10.1453 46.9363 11.253V24.0922C46.9363 25.074 47.379 25.6908 48.2645 25.9425L48.6061 26.0558V26.4334H39.6875Z" fill="#B0B0B0"/>
<path d="M66.5623 5.73987C65.7021 5.73987 64.9685 5.47551 64.3613 4.94685C63.7794 4.39302 63.4884 3.70071 63.4884 2.86993C63.4884 2.01399 63.7794 1.32168 64.3613 0.793008C64.9685 0.264336 65.7021 0 66.5623 0C67.4228 0 68.1437 0.264336 68.7256 0.793008C69.3075 1.32168 69.5985 2.01399 69.5985 2.86993C69.5985 3.70071 69.3075 4.39302 68.7256 4.94685C68.1437 5.47551 67.4228 5.73987 66.5623 5.73987ZM62.084 26.4336V26.0559L62.6155 25.9049C63.1215 25.7539 63.4631 25.5273 63.6401 25.2252C63.8424 24.9231 63.9437 24.5203 63.9437 24.0168V12.1972C63.9437 11.6685 63.8424 11.2783 63.6401 11.0266C63.4631 10.7497 63.1215 10.5608 62.6155 10.4601L62.084 10.3468V9.96924L69.0292 7.74126L69.4088 8.11887L69.2948 13.4811V24.0545C69.2948 24.558 69.3835 24.9608 69.5608 25.2629C69.7631 25.565 70.1047 25.7916 70.5853 25.9427L70.9649 26.0559V26.4336H62.084Z" fill="#B0B0B0"/>
<path d="M82.4379 26.9999C80.7175 26.9999 79.1488 26.6348 77.732 25.9048C76.3403 25.1495 75.2271 24.067 74.3922 22.6572C73.5827 21.2223 73.1777 19.4726 73.1777 17.4083C73.1777 15.3691 73.6206 13.6321 74.5062 12.1971C75.417 10.7369 76.6188 9.62925 78.1116 8.874C79.6297 8.09358 81.2868 7.70337 83.0832 7.70337C84.5506 7.70337 85.7904 7.94253 86.8026 8.42085C87.8144 8.89917 88.5863 9.52854 89.1175 10.309C89.6488 11.0642 89.9144 11.8572 89.9144 12.688C89.9144 13.3929 89.6994 13.9467 89.2695 14.3495C88.8392 14.7271 88.2827 14.916 87.5994 14.916C86.8659 14.916 86.2713 14.6516 85.8157 14.1229C85.3604 13.5943 85.0945 12.902 85.0188 12.046C84.9935 11.4922 85.0062 11.0264 85.0568 10.6488C85.1072 10.246 85.1072 9.84324 85.0568 9.44043C84.9555 9.01248 84.7909 8.73555 84.5633 8.60967C84.3609 8.45862 84.07 8.38311 83.6904 8.38311C82.147 8.38311 80.9452 9.05022 80.085 10.3845C79.2501 11.7187 78.8325 13.846 78.8325 16.7663C78.8325 19.309 79.3007 21.26 80.2369 22.6195C81.1981 23.9537 82.6659 24.6208 84.6392 24.6208C85.8284 24.6208 86.7899 24.4069 87.5235 23.9789C88.2573 23.5509 88.9659 22.909 89.6488 22.053L90.0284 22.3551C89.3958 23.8404 88.4216 24.9859 87.1062 25.7915C85.7904 26.5971 84.2343 26.9999 82.4379 26.9999Z" fill="#B0B0B0"/>
<path d="M101.462 7.70337C103.106 7.70337 104.511 8.04324 105.675 8.72295C106.839 9.37749 107.724 10.2838 108.331 11.4418C108.964 12.5747 109.28 13.8712 109.28 15.3313C109.28 15.6083 109.267 15.8978 109.242 16.1999C109.217 16.4768 109.166 16.7285 109.09 16.9551H97.7806C97.806 19.674 98.2866 21.6377 99.2228 22.846C100.184 24.0293 101.601 24.6208 103.473 24.6208C104.739 24.6208 105.763 24.4195 106.548 24.0167C107.332 23.6139 108.066 23.0223 108.749 22.2418L109.128 22.5817C108.344 23.9663 107.294 25.0488 105.978 25.8293C104.688 26.6097 103.132 26.9999 101.31 26.9999C99.5137 26.9999 97.9196 26.6222 96.5282 25.867C95.1367 25.0866 94.0486 23.9789 93.2644 22.5439C92.4798 21.109 92.0879 19.3971 92.0879 17.4083C92.0879 15.3439 92.5432 13.5943 93.454 12.1593C94.3649 10.6992 95.5287 9.59148 96.9458 8.83623C98.3879 8.08101 99.8933 7.70337 101.462 7.70337ZM101.348 8.45862C100.614 8.45862 99.9817 8.68518 99.4504 9.13833C98.9445 9.56631 98.5395 10.3467 98.2359 11.4796C97.9576 12.5873 97.806 14.1607 97.7806 16.1999H104.27C104.523 13.4558 104.422 11.4796 103.967 10.2712C103.511 9.06282 102.639 8.45862 101.348 8.45862Z" fill="#B0B0B0"/>
<path d="M116.485 27C115.574 27 114.802 26.6853 114.17 26.0559C113.537 25.4266 113.221 24.6713 113.221 23.7902C113.221 22.9091 113.537 22.1413 114.17 21.4867C114.802 20.8322 115.574 20.5049 116.485 20.5049C117.395 20.5049 118.167 20.8322 118.799 21.4867C119.432 22.1413 119.748 22.9091 119.748 23.7902C119.748 24.6713 119.432 25.4266 118.799 26.0559C118.167 26.6853 117.395 27 116.485 27Z" fill="#B0B0B0"/>
</g>
<defs>
<clipPath id="clip0_14241_16411">
<rect width="120" height="27" fill="white"/>
</clipPath>
</defs>
</svg>
