<svg width="120" height="29" viewBox="0 0 120 29" fill="none" xmlns="http://www.w3.org/2000/svg">
<g clip-path="url(#clip0_14241_16389)">
<path d="M61.0015 4.51156C58.8521 5.77048 56.8321 7.26814 54.9407 9.00453C53.0493 10.6976 51.2008 12.4339 49.3956 14.2138C48.3639 15.2122 47.3537 16.2324 46.365 17.2742C45.3764 18.316 44.3878 19.3579 43.3991 20.3998C42.8831 21.0075 42.3243 21.6152 41.7227 22.223C41.1639 22.7873 40.605 23.3951 40.0462 24.0462C40.949 23.8292 41.8301 23.5687 42.6898 23.2648C43.5925 22.9609 44.4093 22.7005 45.1399 22.4834C45.7847 22.3532 46.4725 22.1796 47.2031 21.9625C47.9341 21.7455 48.6647 21.5718 49.3956 21.4416C50.1262 21.268 50.8568 21.1811 51.5878 21.1811C52.3615 21.1377 53.0706 21.2462 53.7156 21.5067C54.5321 21.8106 55.0266 22.3315 55.1984 23.0695C55.3274 23.547 55.2843 24.0028 55.0694 24.4369C55.8003 24.2199 56.5094 23.9811 57.1972 23.7206C57.9282 23.4602 58.6157 23.2214 59.2607 23.0044C60.507 22.6137 61.7537 22.223 63.0003 21.8323C64.247 21.3982 65.5149 21.0509 66.8046 20.7905C67.1485 20.7036 67.5568 20.6602 68.0297 20.6602C68.5454 20.6168 68.9968 20.6602 69.3835 20.7905C69.7705 20.9207 70.0498 21.1594 70.2219 21.5067C70.4368 21.8106 70.4583 22.2664 70.2862 22.8741C70.1572 23.2648 69.8995 23.5904 69.5125 23.8509C69.1258 24.0679 68.6744 24.2416 68.1584 24.3718C67.6427 24.502 67.127 24.6106 66.6109 24.6974C66.0952 24.7408 65.687 24.8059 65.3858 24.8927C63.9246 25.3268 62.4846 25.7826 61.0658 26.2601C59.6474 26.6942 58.229 27.1283 56.8105 27.5624C56.0796 27.7795 55.2843 27.9966 54.4247 28.2136C53.565 28.4741 52.7482 28.5175 51.9745 28.3438C51.6737 28.3004 51.3513 28.1702 51.0074 27.9531C50.2768 27.3888 49.9329 26.8679 49.9757 26.3904C50.0188 25.9129 50.2121 25.4354 50.556 24.9578H49.7823C48.2349 25.2183 46.6874 25.5439 45.1399 25.9346C43.8933 26.2819 42.6254 26.6725 41.3357 27.1067C40.089 27.5408 38.7996 27.8229 37.467 27.9531C36.9941 27.9965 36.5215 27.9097 36.0486 27.6927C35.5757 27.519 35.2317 27.1501 35.0168 26.5857C34.845 26.1082 34.845 25.6524 35.0168 25.2183C35.189 24.7408 35.4251 24.285 35.7262 23.8509C34.4796 24.5888 33.2976 25.2183 32.1799 25.7392C31.1052 26.2167 30.2885 26.564 29.7297 26.781C28.6121 27.2586 27.4085 27.7578 26.1189 28.2787C24.8294 28.7996 23.5398 29.0384 22.2503 28.995C20.8317 28.9082 19.9721 28.5175 19.6712 27.8229C19.3703 27.1283 19.4347 26.2601 19.8646 25.2183C20.2514 24.133 20.8747 22.9827 21.7344 21.7672C22.5941 20.5083 23.4968 19.3145 24.4425 18.1858C25.4312 17.0572 26.3339 16.0804 27.1506 15.2556C27.9673 14.3874 28.5046 13.8231 28.7625 13.5626L29.6652 12.651C28.4186 12.651 27.1936 12.651 25.99 12.651C24.7864 12.651 23.5613 12.6727 22.3147 12.7161C19.8216 12.803 17.3499 12.9332 14.8998 13.1068C12.4066 13.2371 9.91348 13.4324 7.42034 13.6929C6.51764 13.8231 5.63646 13.9533 4.77674 14.0836C3.87404 14.1704 2.97136 14.3223 2.06867 14.5393C1.85374 14.5828 1.61732 14.6479 1.35941 14.7347C1.1015 14.8215 0.865078 14.8215 0.650152 14.7347C0.177314 14.5611 -0.0376127 14.2572 0.00537335 13.8231C0.00537335 13.3456 0.2203 13.0417 0.650152 12.9115C5.80839 11.5657 11.1171 10.7192 16.5762 10.372C22.0353 9.98129 27.43 9.74252 32.7603 9.65568C33.8776 8.61384 34.9953 7.59371 36.1129 6.59528C37.2306 5.59684 38.3698 4.5984 39.5302 3.59996C40.089 3.07903 40.7341 2.42788 41.4647 1.64649C42.2384 0.821696 43.0121 0.300772 43.7858 0.0837207C44.2157 -0.0465112 44.5811 -0.0248062 44.8819 0.148835C45.2258 0.279066 45.4839 0.517824 45.6557 0.865105C45.8278 1.16898 45.8921 1.51626 45.8493 1.90695C45.8062 2.29765 45.6341 2.64493 45.3333 2.9488C44.0008 4.07746 42.6898 5.20614 41.4003 6.33479C40.1106 7.42007 38.8427 8.54872 37.596 9.7208C38.2408 9.7208 38.8427 9.80764 39.4015 9.98129C39.9172 10.1115 40.3686 10.3285 40.7553 10.6324C41.1854 10.9363 41.4862 11.3921 41.658 11.9998C41.787 12.5208 41.7227 12.9766 41.4647 13.3673C41.2066 13.7146 40.8843 13.975 40.4976 14.1486C40.1106 14.2789 39.7023 14.3006 39.2725 14.2138C38.8855 14.0836 38.5847 13.8014 38.3698 13.3673C37.8109 13.1502 37.1662 12.9983 36.4353 12.9115C35.7047 12.7812 35.0168 12.7161 34.3721 12.7161L33.7274 13.3022C31.9649 14.9952 30.0951 16.8184 28.1177 18.7719C26.1834 20.7253 24.6574 22.8307 23.5398 25.0881C25.0443 24.7842 26.5918 24.3501 28.1822 23.7857C29.7727 23.2214 31.3417 22.592 32.889 21.8974C34.4365 21.2028 35.9627 20.4648 37.467 19.6835C38.9717 18.8587 40.3686 18.0122 41.658 17.144C43.2917 15.451 44.9466 13.8014 46.6231 12.1952C48.3423 10.5456 50.0831 8.96113 51.8458 7.44175C52.9203 6.48675 54.0164 5.55344 55.1341 4.6418C56.2517 3.73017 57.3909 2.88369 58.5513 2.1023C59.0242 1.75502 59.54 1.53797 60.0988 1.45115C60.7007 1.32091 61.1949 1.55967 61.5819 2.16742C61.7968 2.55811 61.8396 2.99221 61.7109 3.46972C61.6247 3.90382 61.3882 4.25111 61.0015 4.51156Z" fill="#B0B0B0"/>
<path d="M98.7153 24.1114C97.7266 24.1982 96.738 24.3718 95.7494 24.6323C94.8035 24.8494 93.8364 25.0664 92.8478 25.2834C90.2686 25.8912 87.711 26.4772 85.1749 27.0416C82.6388 27.5625 80.0596 27.9532 77.4376 28.2137C76.7498 28.3005 76.0188 28.3656 75.2451 28.409C74.5145 28.4524 73.7623 28.4307 72.9886 28.3439C72.2577 28.2571 71.5486 28.0834 70.8608 27.823C70.1729 27.6059 69.5498 27.2586 68.991 26.7811C68.518 26.3904 68.1526 25.9346 67.8949 25.4137C67.5938 24.8928 67.422 24.3501 67.3788 23.7858C67.2929 23.2215 67.3361 22.6788 67.5079 22.1579C67.68 21.5936 68.0023 21.0944 68.4749 20.6603C68.7761 20.3564 69.2487 20.1176 69.8937 19.944C70.5812 19.727 71.3337 19.575 72.1502 19.4882C72.9671 19.4014 73.7839 19.3797 74.6004 19.4231C75.4172 19.4665 76.1263 19.6184 76.7282 19.8789C77.3302 20.1393 77.7384 20.5083 77.9533 20.9858C78.2113 21.4199 78.1898 21.9843 77.889 22.6788C77.631 23.1998 77.2439 23.5687 76.7282 23.7858C76.2125 24.0029 75.6321 24.1548 74.9874 24.2416C74.3424 24.285 73.6761 24.285 72.9886 24.2416C72.3008 24.1548 71.6988 24.068 71.1831 23.9812C71.3549 24.1548 71.6988 24.3067 72.2149 24.437C72.7306 24.5238 73.2679 24.5889 73.8267 24.6323C74.4286 24.6757 74.9659 24.6974 75.4388 24.6974C75.9545 24.6974 76.2769 24.6974 76.4059 24.6974C78.5121 24.5238 80.5969 24.2199 82.6603 23.7858C84.7666 23.3517 86.8513 22.8959 88.9145 22.4184C90.4192 22.0711 91.902 21.7238 93.3635 21.3765C94.8679 20.9858 96.3725 20.7037 97.8769 20.53C98.5219 20.4866 99.0592 20.6386 99.489 20.9858C99.9188 21.3331 100.198 21.7455 100.327 22.223C100.456 22.6571 100.392 23.0695 100.134 23.4602C99.9188 23.8509 99.4459 24.068 98.7153 24.1114Z" fill="#B0B0B0"/>
<path d="M118.176 24.1112C115.984 24.1546 113.748 24.2197 111.47 24.3066C109.192 24.35 106.957 24.0895 104.764 23.5252C104.593 23.5252 104.42 23.4818 104.249 23.395C103.991 24.1329 103.604 24.8492 103.088 25.5438C102.615 26.1949 102.078 26.7592 101.476 27.2367C100.874 27.7143 100.208 28.0615 99.4773 28.2786C98.7894 28.4957 98.1016 28.5174 97.4138 28.3437C96.7691 28.1701 96.2961 27.8445 95.9953 27.367C95.6514 26.8895 95.4581 26.3468 95.415 25.7391C95.3722 25.1313 95.4581 24.5236 95.673 23.9159C95.8451 23.3081 96.1028 22.7655 96.4467 22.288C97.0055 21.5934 97.7149 21.0725 98.5745 20.7252C99.4342 20.3779 100.294 20.3345 101.154 20.595C101.24 19.9872 101.584 19.5097 102.185 19.1624C102.787 18.8151 103.432 18.8585 104.12 19.2927C104.764 19.6834 105.452 19.9872 106.183 20.2043C106.957 20.3779 107.752 20.4864 108.569 20.5299C109.385 20.5733 110.18 20.595 110.954 20.595C111.771 20.5516 112.545 20.5299 113.275 20.5299C114.135 20.5299 115.059 20.4864 116.048 20.3996C117.037 20.2694 117.939 20.3345 118.756 20.595C119.229 20.7686 119.551 21.0508 119.723 21.4415C119.938 21.8322 120.003 22.2229 119.917 22.6136C119.874 23.0043 119.702 23.3515 119.401 23.6554C119.1 23.9593 118.692 24.1112 118.176 24.1112ZM98.8969 24.9577C99.0259 24.8275 99.2839 24.7624 99.6706 24.7624V24.1763C99.5847 24.2631 99.4557 24.3717 99.2839 24.5019C99.1118 24.5887 98.9828 24.7407 98.8969 24.9577Z" fill="#B0B0B0"/>
</g>
<defs>
<clipPath id="clip0_14241_16389">
<rect width="120" height="29" fill="white"/>
</clipPath>
</defs>
</svg>
